<svg viewBox="0 0 1200 600" xmlns="http://www.w3.org/2000/svg">
  <defs>
    <!-- Gradients -->
    <linearGradient id="bgGradient" x1="0%" y1="0%" x2="100%" y2="100%">
      <stop offset="0%" style="stop-color:#0f172a;stop-opacity:1" />
      <stop offset="30%" style="stop-color:#1e293b;stop-opacity:1" />
      <stop offset="70%" style="stop-color:#334155;stop-opacity:1" />
      <stop offset="100%" style="stop-color:#475569;stop-opacity:1" />
    </linearGradient>
    
    <radialGradient id="globeGradient" cx="50%" cy="40%" r="60%">
      <stop offset="0%" style="stop-color:#06b6d4;stop-opacity:0.8" />
      <stop offset="50%" style="stop-color:#0891b2;stop-opacity:0.6" />
      <stop offset="100%" style="stop-color:#0e7490;stop-opacity:0.3" />
    </radialGradient>
    
    <linearGradient id="dataGlow" x1="0%" y1="0%" x2="100%" y2="0%">
      <stop offset="0%" style="stop-color:#22d3ee;stop-opacity:0.9" />
      <stop offset="50%" style="stop-color:#06b6d4;stop-opacity:0.7" />
      <stop offset="100%" style="stop-color:#0891b2;stop-opacity:0.5" />
    </linearGradient>
    
    <!-- Globe sphere effect -->
    <filter id="sphereEffect">
      <feGaussianBlur in="SourceGraphic" stdDeviation="1"/>
      <feOffset dx="2" dy="2" result="offset"/>
      <feFlood flood-color="#000000" flood-opacity="0.3"/>
      <feComposite in="SourceGraphic"/>
    </filter>
    
    <!-- Glow effect -->
    <filter id="glow">
      <feGaussianBlur stdDeviation="4" result="coloredBlur"/>
      <feMerge> 
        <feMergeNode in="coloredBlur"/>
        <feMergeNode in="SourceGraphic"/>
      </feMerge>
    </filter>
  </defs>
  
  <!-- Background -->
  <rect width="1200" height="600" fill="url(#bgGradient)"/>
  
  <!-- Background pattern -->
  <g opacity="0.05">
    <defs>
      <pattern id="grid" width="40" height="40" patternUnits="userSpaceOnUse">
        <path d="M 40 0 L 0 0 0 40" fill="none" stroke="#64748b" stroke-width="1"/>
      </pattern>
    </defs>
    <rect width="1200" height="600" fill="url(#grid)"/>
  </g>
  
  <!-- Main Globe -->
  <g transform="translate(600, 300)">
    <!-- Globe base circle -->
    <circle cx="0" cy="0" r="180" fill="url(#globeGradient)" filter="url(#sphereEffect)" opacity="0.9"/>
    
    <!-- Globe outline -->
    <circle cx="0" cy="0" r="180" fill="none" stroke="#22d3ee" stroke-width="2" opacity="0.6"/>
    
    <!-- Detailed world map -->
    <g transform="scale(0.8)" opacity="0.8">
      <!-- North America -->
      <path d="M-120,-80 Q-100,-90 -80,-85 L-50,-75 Q-30,-85 -10,-80 L20,-70 Q0,-50 -20,-55 L-60,-45 Q-90,-55 -120,-60 Z" 
            fill="#22d3ee" opacity="0.9">
        <animate attributeName="opacity" values="0.7;1;0.7" dur="4s" repeatCount="indefinite"/>
      </path>
      
      <!-- South America -->
      <path d="M-40,20 Q-30,10 -20,20 L-10,60 Q-15,100 -25,110 Q-35,120 -40,110 L-45,80 Q-50,50 -40,30 Z" 
            fill="#06b6d4" opacity="0.8">
        <animate attributeName="opacity" values="0.6;0.9;0.6" dur="5s" repeatCount="indefinite"/>
      </path>
      
      <!-- Europe -->
      <path d="M40,-70 Q60,-80 80,-75 L100,-65 Q110,-55 100,-45 L80,-40 Q60,-50 50,-60 L40,-65 Z" 
            fill="#0891b2" opacity="0.9">
        <animate attributeName="opacity" values="0.8;1;0.8" dur="3.5s" repeatCount="indefinite"/>
      </path>
      
      <!-- Africa -->
      <path d="M60,-40 Q80,-50 90,-30 L95,10 Q100,50 90,80 Q80,100 70,95 L65,60 Q55,20 60,-10 Z" 
            fill="#0e7490" opacity="0.8">
        <animate attributeName="opacity" values="0.7;0.95;0.7" dur="4.5s" repeatCount="indefinite"/>
      </path>
      
      <!-- Asia -->
      <path d="M110,-80 Q150,-90 180,-75 L200,-60 Q220,-50 210,-30 L180,-25 Q150,-35 120,-45 Q105,-60 110,-75 Z" 
            fill="#22d3ee" opacity="0.85">
        <animate attributeName="opacity" values="0.75;1;0.75" dur="6s" repeatCount="indefinite"/>
      </path>
      
      <!-- Australia -->
      <path d="M160,60 Q180,55 190,65 L195,75 Q190,85 175,80 L165,75 Q160,70 160,65 Z" 
            fill="#06b6d4" opacity="0.9">
        <animate attributeName="opacity" values="0.8;1;0.8" dur="3s" repeatCount="indefinite"/>
      </path>
    </g>
    
    <!-- Rotating orbital rings -->
    <g>
      <ellipse cx="0" cy="0" rx="220" ry="50" fill="none" stroke="#22d3ee" stroke-width="1" opacity="0.4">
        <animateTransform attributeName="transform" type="rotate" values="0;360" dur="20s" repeatCount="indefinite"/>
      </ellipse>
      <ellipse cx="0" cy="0" rx="200" ry="80" fill="none" stroke="#06b6d4" stroke-width="1" opacity="0.3">
        <animateTransform attributeName="transform" type="rotate" values="360;0" dur="25s" repeatCount="indefinite"/>
      </ellipse>
    </g>
  </g>
  
  <!-- Information panels floating around -->
  <g>
    <!-- Left info panel -->
    <g transform="translate(150, 200)" opacity="0.9">
      <rect x="0" y="0" width="180" height="120" rx="8" fill="#1e293b" stroke="#22d3ee" stroke-width="1" opacity="0.8"/>
      <rect x="10" y="10" width="160" height="8" rx="4" fill="url(#dataGlow)">
        <animate attributeName="width" values="20;160;20" dur="3s" repeatCount="indefinite"/>
      </rect>
      <rect x="10" y="30" width="120" height="6" rx="3" fill="#06b6d4" opacity="0.7"/>
      <rect x="10" y="45" width="140" height="6" rx="3" fill="#0891b2" opacity="0.6"/>
      <rect x="10" y="60" width="100" height="6" rx="3" fill="#0e7490" opacity="0.5"/>
      <circle cx="150" cy="90" r="15" fill="#22d3ee" opacity="0.8">
        <animate attributeName="r" values="12;18;12" dur="2s" repeatCount="indefinite"/>
      </circle>
      <text x="150" y="95" text-anchor="middle" fill="#ffffff" font-size="10" font-family="Arial">194</text>
    </g>
    
    <!-- Right info panel -->
    <g transform="translate(870, 150)" opacity="0.9">
      <rect x="0" y="0" width="200" height="140" rx="8" fill="#1e293b" stroke="#06b6d4" stroke-width="1" opacity="0.8"/>
      <rect x="15" y="15" width="170" height="10" rx="5" fill="url(#dataGlow)">
        <animate attributeName="width" values="30;170;30" dur="4s" repeatCount="indefinite"/>
      </rect>
      <rect x="15" y="35" width="150" height="8" rx="4" fill="#22d3ee" opacity="0.8"/>
      <rect x="15" y="50" width="130" height="8" rx="4" fill="#06b6d4" opacity="0.7"/>
      <rect x="15" y="65" width="110" height="8" rx="4" fill="#0891b2" opacity="0.6"/>
      <rect x="15" y="80" width="160" height="8" rx="4" fill="#0e7490" opacity="0.5"/>
      <g transform="translate(150, 110)">
        <circle cx="0" cy="0" r="20" fill="none" stroke="#22d3ee" stroke-width="2">
          <animate attributeName="stroke-dasharray" values="0,126; 63,63; 126,0" dur="3s" repeatCount="indefinite"/>
        </circle>
        <text x="0" y="5" text-anchor="middle" fill="#22d3ee" font-size="12" font-family="Arial">7.8B</text>
      </g>
    </g>
    
    <!-- Bottom info panel -->
    <g transform="translate(450, 450)" opacity="0.9">
      <rect x="0" y="0" width="300" height="100" rx="8" fill="#1e293b" stroke="#0891b2" stroke-width="1" opacity="0.8"/>
      <g transform="translate(20, 20)">
        <rect x="0" y="0" width="260" height="12" rx="6" fill="url(#dataGlow)">
          <animate attributeName="width" values="50;260;50" dur="5s" repeatCount="indefinite"/>
        </rect>
        <rect x="0" y="25" width="200" height="8" rx="4" fill="#22d3ee" opacity="0.7"/>
        <rect x="0" y="40" width="180" height="8" rx="4" fill="#06b6d4" opacity="0.6"/>
        <rect x="0" y="55" width="220" height="8" rx="4" fill="#0891b2" opacity="0.5"/>
      </g>
    </g>
  </g>
  
  <!-- Data connection lines -->
  <g stroke="url(#dataGlow)" stroke-width="2" fill="none" opacity="0.6" filter="url(#glow)">
    <path d="M330,260 Q450,200 580,280">
      <animate attributeName="stroke-dasharray" values="0,300; 150,150; 300,0" dur="4s" repeatCount="indefinite"/>
    </path>
    <path d="M620,280 Q750,200 870,250">
      <animate attributeName="stroke-dasharray" values="0,250; 125,125; 250,0" dur="3s" repeatCount="indefinite"/>
    </path>
    <path d="M600,420 Q680,380 750,450">
      <animate attributeName="stroke-dasharray" values="0,200; 100,100; 200,0" dur="5s" repeatCount="indefinite"/>
    </path>
  </g>
  
  <!-- Floating data points -->
  <g>
    <circle cx="100" cy="100" r="4" fill="#22d3ee" opacity="0.8">
      <animate attributeName="cy" values="100;500;100" dur="15s" repeatCount="indefinite"/>
      <animate attributeName="opacity" values="0.3;1;0.3" dur="15s" repeatCount="indefinite"/>
    </circle>
    <circle cx="1100" cy="80" r="3" fill="#06b6d4" opacity="0.7">
      <animate attributeName="cy" values="80;520;80" dur="18s" repeatCount="indefinite"/>
      <animate attributeName="opacity" values="0.2;0.9;0.2" dur="18s" repeatCount="indefinite"/>
    </circle>
    <circle cx="50" cy="300" r="5" fill="#0891b2" opacity="0.6">
      <animate attributeName="cx" values="50;1150;50" dur="25s" repeatCount="indefinite"/>
      <animate attributeName="opacity" values="0.3;0.8;0.3" dur="25s" repeatCount="indefinite"/>
    </circle>
  </g>
  
  <!-- Title area overlay -->
  <g transform="translate(600, 80)">
    <rect x="-200" y="-30" width="400" height="60" rx="30" fill="#0f172a" opacity="0.7" stroke="#22d3ee" stroke-width="1"/>
    <text x="0" y="-5" text-anchor="middle" fill="#22d3ee" font-size="32" font-family="Arial, sans-serif" font-weight="bold">GeoPeek</text>
    <text x="0" y="15" text-anchor="middle" fill="#64748b" font-size="14" font-family="Arial, sans-serif">Discover the World's Countries</text>
  </g>
</svg>